<svg width="300" height="300" xmlns="http://www.w3.org/2000/svg"><style>:root {--line-color: rgb(255, 255, 255);--background-color: rgb(127,127,127);}</style><rect width="100%" height="100%" fill="var(--background-color)" /><defs><rect id="rod" width="8" height="1" fill="var(--line-color)" /></defs><g><use href="#rod" x="20" y="30" transform="rotate(15,25,31)"/><use href="#rod" x="50" y="80" transform="rotate(-20,55,81)"/><use href="#rod" x="90" y="150" transform="rotate(35,95,151)"/><use href="#rod" x="120" y="60" transform="rotate(50,125,61)"/><use href="#rod" x="30" y="110" transform="rotate(-10,35,111)"/><use href="#rod" x="160" y="90" transform="rotate(25,165,91)"/><use href="#rod" x="140" y="20" transform="rotate(-30,145,21)"/><use href="#rod" x="70" y="40" transform="rotate(45,75,41)"/><use href="#rod" x="180" y="130" transform="rotate(-15,185,131)"/><use href="#rod" x="100" y="100" transform="rotate(5,105,101)"/><use href="#rod" x="25" y="34" transform="rotate(-20,78,91)"/><use href="#rod" x="71" y="1" transform="rotate(42,44,61)"/><use href="#rod" x="189" y="90" transform="rotate(25,165,91)"/><use href="#rod" x="73" y="45" transform="rotate(49,75,44)"/><use href="#rod" x="132" y="34" transform="rotate(-15,85,13)"/><use href="#rod" x="182" y="20" transform="rotate(54,105,101)"/><use href="#rod" x="54" y="234" transform="rotate(15,25,31)"/><use href="#rod" x="97" y="67" transform="rotate(-20,55,81)"/><use href="#rod" x="38" y="69" transform="rotate(35,95,151)"/><use href="#rod" x="84" y="39" transform="rotate(50,125,61)"/><use href="#rod" x="145" y="239" transform="rotate(-10,35,111)"/><use href="#rod" x="167" y="139" transform="rotate(25,165,91)"/><use href="#rod" x="145" y="167" transform="rotate(-30,145,21)"/><use href="#rod" x="236" y="240" transform="rotate(45,75,41)"/><use href="#rod" x="160" y="230" transform="rotate(-15,185,131)"/><use href="#rod" x="167" y="33" transform="rotate(15,25,31)"/><use href="#rod" x="80" y="80" transform="rotate(-20,55,81)"/><use href="#rod" x="18" y="150" transform="rotate(35,95,151)"/><use href="#rod" x="70" y="190" transform="rotate(-10,35,111)"/><use href="#rod" x="169" y="289" transform="rotate(25,165,91)"/><use href="#rod" x="157" y="74" transform="rotate(45,75,41)"/><use href="#rod" x="220" y="74" transform="rotate(45,75,41)"/><use href="#rod" x="220" y="220" transform="rotate(45,75,41)"/><use href="#rod" x="45" y="74" transform="rotate(45,75,41)"/><use href="#rod" x="290" y="29" transform="rotate(45,75,41)"/><use href="#rod" x="20" y="74" transform="rotate(45,75,41)"/><use href="#rod" x="87" y="130" transform="rotate(45,75,41)"/><use href="#rod" x="2" y="64" transform="rotate(45,75,41)"/><use href="#rod" x="20" y="74" transform="rotate(5,75,41)"/><use href="#rod" x="20" y="74" transform="rotate(45,75)"/><use href="#rod" x="20" y="74" transform="rotate(230,33,31)"/><use href="#rod" x="330" y="74" transform="rotate(45,75,41)"/><use href="#rod" x="320" y="14" transform="rotate(45,75,41)"/><use href="#rod" x="357" y="12" transform="rotate(45,75,41)"/><use href="#rod" x="220" y="74" transform="rotate(45,75,41)"/><use href="#rod" x="201" y="74" transform="rotate(5,75,41)"/><use href="#rod" x="201" y="174" transform="rotate(5,75,41)"/><use href="#rod" x="201" y="274" transform="rotate(5,75,41)"/><use href="#rod" x="201" y="234" transform="rotate(5,75,41)"/><use href="#rod" x="172" y="24" transform="rotate(5,75,41)"/><use href="#rod" x="320" y="23" transform="rotate(43,53,41)"/><use href="#rod" x="220" y="24" transform="rotate(45,75,41)"/><use href="#rod" x="83" y="95" transform="rotate(-15,185,131)"/><use href="#rod" x="63" y="91" transform="rotate(15,25,31)"/><use href="#rod" x="175" y="165" transform="rotate(-20,55,81)"/><use href="#rod" x="150" y="250" transform="rotate(-10,35,111)"/><use href="#rod" x="250" y="250" transform="rotate(-10,35,111)"/><use href="#rod" x="159" y="138" transform="rotate(25,165,91)"/><use href="#rod" x="25" y="20" transform="rotate(-30,145,21)"/><use href="#rod" x="75" y="130" transform="rotate(-15,185,131)"/><use href="#rod" x="111" y="153" transform="rotate(5,105,101)"/><use href="#rod" x="63" y="191" transform="rotate(15,25,31)"/><use href="#rod" x="75" y="205" transform="rotate(1,55,81)"/><use href="#rod" x="20" y="250" transform="rotate(-10,35,111)"/><use href="#rod" x="201" y="138" transform="rotate(25,165,91)"/><use href="#rod" x="68" y="257" transform="rotate(0,75,41)"/><use href="#rod" x="259" y="2" transform="rotate(5,105,101)"/><use href="#rod" x="259" y="62" transform="rotate(5,105,101)"/><use href="#rod" x="259" y="72" transform="rotate(5,15,10)"/><use href="#rod" x="259" y="2" transform="rotate(5,105,101)"/><use href="#rod" x="29" y="42" transform="rotate(5,105,101)"/><use href="#rod" x="259" y="22" transform="rotate(5,105,101)"/><use href="#rod" x="259" y="259" transform="rotate(5,105,101)"/><use href="#rod" x="20" y="30" transform="rotate(9,90,1240)"/><use href="#rod" x="259" y="259" transform="rotate(90,259,259)"/><use href="#rod" x="159" y="299" transform="rotate(90,259,259)"/><use href="#rod" x="9" y="259" transform="rotate(90,259,259)"/><use href="#rod" x="22" y="245" transform="rotate(90,259,260)"/><use href="#rod" x="50" y="50" transform="rotate(0,50,50)"/><use href="#rod" x="100" y="50" transform="rotate(30,100,50)"/><use href="#rod" x="150" y="50" transform="rotate(60,150,50)"/><use href="#rod" x="200" y="50" transform="rotate(90,200,50)"/><use href="#rod" x="250" y="50" transform="rotate(120,250,50)"/>        <use href="#rod" x="50" y="150" transform="rotate(45,50,150)"/><use href="#rod" x="100" y="150" transform="rotate(90,100,150)"/><use href="#rod" x="150" y="150" transform="rotate(135,150,150)"/><use href="#rod" x="200" y="150" transform="rotate(180,200,150)"/><use href="#rod" x="250" y="150" transform="rotate(225,250,150)"/><use href="#rod" x="100" y="250" transform="rotate(270,100,250)"/><use href="#rod" x="150" y="250" transform="rotate(315,150,250)"/><use href="#rod" x="200" y="250" transform="rotate(360,200,250)"/><use href="#rod" x="30" y="30" transform="rotate(15,30,30)"/><use href="#rod" x="90" y="30" transform="rotate(45,90,30)"/><use href="#rod" x="150" y="30" transform="rotate(75,150,30)"/><use href="#rod" x="210" y="30" transform="rotate(105,210,30)"/><use href="#rod" x="270" y="30" transform="rotate(135,270,30)"/><use href="#rod" x="30" y="90" transform="rotate(30,30,90)"/><use href="#rod" x="90" y="90" transform="rotate(60,90,90)"/><use href="#rod" x="150" y="90" transform="rotate(90,150,90)"/><use href="#rod" x="210" y="90" transform="rotate(120,210,90)"/><use href="#rod" x="270" y="90" transform="rotate(150,220,90)"/><use href="#rod" x="30" y="150" transform="rotate(45,30,150)"/><use href="#rod" x="90" y="150" transform="rotate(90,90,120)"/><use href="#rod" x="150" y="150" transform="rotate(135,150,150)"/><use href="#rod" x="210" y="150" transform="rotate(180,210,155)"/><use href="#rod" x="270" y="150" transform="rotate(225,270,150)"/><use href="#rod" x="30" y="210" transform="rotate(60,30,210)"/><use href="#rod" x="90" y="210" transform="rotate(120,90,210)"/><use href="#rod" x="150" y="210" transform="rotate(180,150,210)"/><use href="#rod" x="210" y="210" transform="rotate(240,210,210)"/><use href="#rod" x="270" y="210" transform="rotate(300,270,210)"/><use href="#rod" x="30" y="270" transform="rotate(75,30,270)"/><use href="#rod" x="90" y="270" transform="rotate(150,90,270)"/><use href="#rod" x="150" y="270" transform="rotate(225,150,270)"/><use href="#rod" x="210" y="270" transform="rotate(300,210,270)"/><use href="#rod" x="270" y="270" transform="rotate(360,270,270)"/><use href="#rod" x="100" y="120" transform="rotate(2,250,50)"/><use href="#rod" x="250" y="20" transform="rotate(120,250,50)"/><use href="#rod" x="220" y="50" transform="rotate(120,250,50)"/><use href="#rod" x="450" y="150" transform="rotate(120,250,50)"/><use href="#rod" x="450" y="50" transform="rotate(120,250,50)"/><use href="#rod" x="450" y="70" transform="rotate(120,250,50)"/><use href="#rod" x="450" y="90" transform="rotate(120,250,50)"/><use href="#rod" x="70" y="270" transform="rotate(360,270,270)"/><use href="#rod" x="150" y="50" transform="rotate(90,90,120)"/><use href="#rod" x="50" y="50" transform="rotate(90,90,120)"/><use href="#rod" x="300" y="300" transform="rotate(45,300,300)"/><use href="#rod" x="10" y="40" transform="rotate(20, 10, 40)"/><use href="#rod" x="35" y="120" transform="rotate(10, 35, 120)"/><use href="#rod" x="60" y="80" transform="rotate(-5, 60, 80)"/><use href="#rod" x="120" y="160" transform="rotate(40, 120, 160)"/><use href="#rod" x="180" y="50" transform="rotate(90, 180, 50)"/><use href="#rod" x="200" y="100" transform="rotate(45, 200, 100)"/><use href="#rod" x="250" y="200" transform="rotate(180, 250, 200)"/><use href="#rod" x="30" y="220" transform="rotate(90, 30, 220)"/><use href="#rod" x="80" y="250" transform="rotate(270, 80, 250)"/><use href="#rod" x="100" y="170" transform="rotate(60, 100, 170)"/><use href="#rod" x="150" y="90" transform="rotate(110, 150, 90)"/><use href="#rod" x="180" y="300" transform="rotate(30, 180, 300)"/><use href="#rod" x="90" y="200" transform="rotate(200, 90, 200)"/><use href="#rod" x="270" y="50" transform="rotate(160, 270, 50)"/><use href="#rod" x="50" y="250" transform="rotate(25, 50, 250)"/><use href="#rod" x="220" y="170" transform="rotate(35, 220, 170)"/><use href="#rod" x="70" y="50" transform="rotate(120, 70, 50)"/><use href="#rod" x="250" y="180" transform="rotate(160, 250, 180)"/><use href="#rod" x="150" y="30" transform="rotate(20, 150, 30)"/><use href="#rod" x="30" y="150" transform="rotate(-45, 30, 150)"/><use href="#rod" x="160" y="140" transform="rotate(50, 160, 140)"/><use href="#rod" x="80" y="200" transform="rotate(70, 80, 200)"/><use href="#rod" x="90" y="50" transform="rotate(90, 90, 50)"/><use href="#rod" x="180" y="80" transform="rotate(60, 180, 80)"/><use href="#rod" x="220" y="50" transform="rotate(80, 220, 50)"/><use href="#rod" x="250" y="60" transform="rotate(150, 250, 60)"/>
        <use href="#rod" x="50" y="130" transform="rotate(10, 50, 130)"/>
        <use href="#rod" x="10" y="100" transform="rotate(80, 10, 100)"/>
        <use href="#rod" x="70" y="150" transform="rotate(120, 70, 150)"/>
        <use href="#rod" x="190" y="220" transform="rotate(220, 190, 220)"/>
        <use href="#rod" x="220" y="200" transform="rotate(200, 220, 200)"/>
        <use href="#rod" x="30" y="30" transform="rotate(180, 30, 30)"/>
        <use href="#rod" x="300" y="200" transform="rotate(250, 300, 200)"/>
        <use href="#rod" x="250" y="100" transform="rotate(30, 250, 100)"/>
        <use href="#rod" x="100" y="50" transform="rotate(250, 100, 50)"/>
        <use href="#rod" x="30" y="50" transform="rotate(60, 30, 50)"/>
        <use href="#rod" x="30" y="270" transform="rotate(110, 30, 270)"/>
        <use href="#rod" x="50" y="80" transform="rotate(85, 50, 80)"/>
        <use href="#rod" x="200" y="80" transform="rotate(120, 200, 80)"/>
        <use href="#rod" x="150" y="150" transform="rotate(80, 150, 150)"/>
        <use href="#rod" x="250" y="200" transform="rotate(45, 250, 200)"/>
        <use href="#rod" x="180" y="220" transform="rotate(135, 180, 220)"/>
        <use href="#rod" x="120" y="60" transform="rotate(170, 120, 60)"/>
        <use href="#rod" x="70" y="100" transform="rotate(90, 70, 100)"/>
        <use href="#rod" x="40" y="230" transform="rotate(45, 40, 230)"/>
        <use href="#rod" x="200" y="50" transform="rotate(60, 200, 50)"/>
        <use href="#rod" x="250" y="150" transform="rotate(150, 250, 150)"/>
        <use href="#rod" x="100" y="80" transform="rotate(10, 100, 80)"/>
        <use href="#rod" x="220" y="220" transform="rotate(160, 220, 220)"/>
        <use href="#rod" x="10" y="200" transform="rotate(30, 10, 200)"/>
        <use href="#rod" x="80" y="160" transform="rotate(40, 80, 160)"/>
        <use href="#rod" x="40" y="50" transform="rotate(90, 40, 50)"/>
        <use href="#rod" x="120" y="120" transform="rotate(180, 120, 120)"/>
        <use href="#rod" x="160" y="70" transform="rotate(110, 160, 70)"/>
        <use href="#rod" x="90" y="200" transform="rotate(220, 90, 200)"/>
        <use href="#rod" x="230" y="120" transform="rotate(270, 230, 120)"/>
        <use href="#rod" x="150" y="50" transform="rotate(250, 150, 50)"/>
        <use href="#rod" x="60" y="220" transform="rotate(200, 60, 220)"/>
        <use href="#rod" x="240" y="100" transform="rotate(30, 240, 100)"/>
        <use href="#rod" x="200" y="150" transform="rotate(130, 200, 150)"/>
        <use href="#rod" x="180" y="270" transform="rotate(250, 180, 270)"/>
        <use href="#rod" x="30" y="50" transform="rotate(130, 30, 50)"/>
        <use href="#rod" x="170" y="230" transform="rotate(180, 170, 230)"/>
        <use href="#rod" x="40" y="180" transform="rotate(210, 40, 180)"/>
        <use href="#rod" x="250" y="80" transform="rotate(40, 250, 80)"/>
        <use href="#rod" x="100" y="200" transform="rotate(320, 100, 200)"/>
        <use href="#rod" x="70" y="140" transform="rotate(15, 70, 140)"/>
        <use href="#rod" x="180" y="180" transform="rotate(250, 180, 180)"/>
        <use href="#rod" x="150" y="70" transform="rotate(110, 150, 70)"/>
        <use href="#rod" x="120" y="180" transform="rotate(200, 120, 180)"/>
        <use href="#rod" x="80" y="40" transform="rotate(90, 80, 40)"/>
        <use href="#rod" x="200" y="100" transform="rotate(270, 200, 100)"/>
        <use href="#rod" x="60" y="50" transform="rotate(170, 60, 50)"/>
        <use href="#rod" x="250" y="120" transform="rotate(70, 250, 120)"/>
        <use href="#rod" x="150" y="80" transform="rotate(10, 150, 80)"/>
        <use href="#rod" x="100" y="250" transform="rotate(30, 100, 250)"/>
        <use href="#rod" x="50" y="180" transform="rotate(320, 50, 180)"/>
        <use href="#rod" x="120" y="70" transform="rotate(70, 120, 70)"/>
        <use href="#rod" x="180" y="120" transform="rotate(150, 180, 120)"/>
        <use href="#rod" x="50" y="220" transform="rotate(10, 50, 220)"/>
        <use href="#rod" x="30" y="150" transform="rotate(45, 30, 150)"/>
        <use href="#rod" x="160" y="200" transform="rotate(120, 160, 200)"/>
        <use href="#rod" x="130" y="90" transform="rotate(250, 130, 90)"/>
        <use href="#rod" x="300" y="50" transform="rotate(15,25,31)"/>
        <use href="#rod" x="250" y="80" transform="rotate(-10,55,81)"/>
        <use href="#rod" x="190" y="150" transform="rotate(25,95,151)"/>
        <use href="#rod" x="120" y="160" transform="rotate(35,125,61)"/>
        <use href="#rod" x="100" y="220" transform="rotate(45,35,111)"/>
        <use href="#rod" x="175" y="180" transform="rotate(-5,165,91)"/>
        <use href="#rod" x="50" y="20" transform="rotate(-25,145,21)"/>
        <use href="#rod" x="30" y="40" transform="rotate(60,75,41)"/>
        <use href="#rod" x="180" y="140" transform="rotate(-15,185,131)"/>
        <use href="#rod" x="140" y="120" transform="rotate(60,105,101)"/>
        <use href="#rod" x="80" y="60" transform="rotate(45,75,41)"/>
        <use href="#rod" x="90" y="110" transform="rotate(-30,105,101)"/>
        <use href="#rod" x="55" y="60" transform="rotate(45,75,41)"/>
        <use href="#rod" x="120" y="210" transform="rotate(25,165,91)"/>
        <use href="#rod" x="220" y="100" transform="rotate(-10,35,111)"/>
        <use href="#rod" x="80" y="150" transform="rotate(15,85,181)"/>
        <use href="#rod" x="120" y="120" transform="rotate(40,65,41)"/>
        <use href="#rod" x="150" y="250" transform="rotate(35,90,71)"/>
        <use href="#rod" x="70" y="30" transform="rotate(20,90,120)"/>
        <use href="#rod" x="240" y="120" transform="rotate(60,220,50)"/>
        <use href="#rod" x="100" y="190" transform="rotate(80,100,150)"/>
        <use href="#rod" x="170" y="180" transform="rotate(100,170,180)"/>
        <use href="#rod" x="210" y="150" transform="rotate(75,230,70)"/>
        <use href="#rod" x="150" y="90" transform="rotate(45,50,150)"/>
        <use href="#rod" x="180" y="250" transform="rotate(60,100,90)"/>
        <use href="#rod" x="250" y="150" transform="rotate(70,75,41)"/>
        <use href="#rod" x="210" y="80" transform="rotate(100,145,160)"/>
        <use href="#rod" x="80" y="220" transform="rotate(110,80,200)"/>
        <use href="#rod" x="160" y="40" transform="rotate(150,180,60)"/>
        <use href="#rod" x="100" y="50" transform="rotate(135,120,70)"/>
        <use href="#rod" x="90" y="180" transform="rotate(110,130,140)"/>
        <use href="#rod" x="220" y="210" transform="rotate(30,185,200)"/>
        <use href="#rod" x="40" y="130" transform="rotate(160,130,120)"/>
        <use href="#rod" x="170" y="60" transform="rotate(60,150,30)"/>
        <use href="#rod" x="230" y="100" transform="rotate(45,160,90)"/>
        <use href="#rod" x="120" y="270" transform="rotate(90,230,250)"/>
        <use href="#rod" x="200" y="80" transform="rotate(10,50,60)"/>
        <use href="#rod" x="270" y="120" transform="rotate(90,240,150)"/>
        <use href="#rod" x="80" y="140" transform="rotate(30,110,80)"/>
        <use href="#rod" x="220" y="30" transform="rotate(60,130,170)"/>
        <use href="#rod" x="160" y="110" transform="rotate(50,150,120)"/>
        <use href="#rod" x="200" y="200" transform="rotate(100,250,200)"/>
        <use href="#rod" x="180" y="190" transform="rotate(150,200,140)"/>
        <use href="#rod" x="110" y="220" transform="rotate(40,190,200)"/>
        <use href="#rod" x="150" y="180" transform="rotate(10,170,50)"/>
        <use href="#rod" x="160" y="250" transform="rotate(50,180,100)"/>
        <use href="#rod" x="210" y="130" transform="rotate(20,240,80)"/>
        <use href="#rod" x="190" y="160" transform="rotate(15,200,60)"/>
        <use href="#rod" x="100" y="110" transform="rotate(50,60,50)"/>
        <use href="#rod" x="240" y="200" transform="rotate(30,210,230)"/>
        <use href="#rod" x="180" y="30" transform="rotate(75,160,110)"/>
        <use href="#rod" x="100" y="50" transform="rotate(140,50,60)"/>
        <use href="#rod" x="180" y="80" transform="rotate(160,140,80)"/>
        <use href="#rod" x="50" y="250" transform="rotate(10,120,100)"/>
        <use href="#rod" x="110" y="120" transform="rotate(70,100,150)"/>
        <use href="#rod" x="150" y="150" transform="rotate(80,200,170)"/>
        <use href="#rod" x="250" y="230" transform="rotate(45,180,190)"/>
        <use href="#rod" x="80" y="200" transform="rotate(120,70,130)"/>
        <use href="#rod" x="160" y="250" transform="rotate(130,150,130)"/>
        <use href="#rod" x="120" y="200" transform="rotate(40,150,90)"/>
        <use href="#rod" x="60" y="250" transform="rotate(120,120,170)"/>
        <use href="#rod" x="140" y="120" transform="rotate(200,160,120)"/>
        <use href="#rod" x="100" y="80" transform="rotate(45,75,65)"/>
        <use href="#rod" x="100" y="80" transform="rotate(65,75,65)"/>
        <use href="#rod" x="200" y="180" transform="rotate(45,75,65)"/>
        <use href="#rod" x="248" y="83" transform="rotate(45,75,65)"/>
        <use href="#rod" x="230" y="100" transform="rotate(30,200,150)"/>
        <use href="#rod" x="180" y="50" transform="rotate(20,160,180)"/>
        <use href="#rod" x="120" y="150" transform="rotate(40,130,130)"/>
        <use href="#rod" x="250" y="170" transform="rotate(70,220,180)"/>
        <use href="#rod" x="170" y="120" transform="rotate(110,150,190)"/>
        <use href="#rod" x="190" y="90" transform="rotate(90,140,180)"/>
        <use href="#rod" x="230" y="50" transform="rotate(60,210,100)"/>
        <use href="#rod" x="120" y="210" transform="rotate(35,100,140)"/>
        <use href="#rod" x="150" y="80" transform="rotate(60,130,120)"/>
        <use href="#rod" x="240" y="90" transform="rotate(40,210,160)"/>
        <use href="#rod" x="110" y="60" transform="rotate(120,140,160)"/>
        <use href="#rod" x="100" y="120" transform="rotate(80,130,100)"/>
        <use href="#rod" x="250" y="210" transform="rotate(90,230,200)"/>
        <use href="#rod" x="170" y="40" transform="rotate(150,140,120)"/>
        <use href="#rod" x="180" y="200" transform="rotate(75,150,140)"/>
        <use href="#rod" x="200" y="70" transform="rotate(120,170,160)"/>
        <use href="#rod" x="150" y="60" transform="rotate(45,180,150)"/>
        <use href="#rod" x="190" y="100" transform="rotate(10,140,100)"/>
        <use href="#rod" x="210" y="60" transform="rotate(120,180,180)"/>
        <use href="#rod" x="170" y="170" transform="rotate(50,130,120)"/>
        <use href="#rod" x="120" y="180" transform="rotate(30,110,140)"/>
        <use href="#rod" x="200" y="160" transform="rotate(40,190,180)"/>
        <use href="#rod" x="150" y="170" transform="rotate(80,180,150)"/>
        <use href="#rod" x="200" y="50" transform="rotate(50,160,160)"/>
        <use href="#rod" x="160" y="90" transform="rotate(20,140,120)"/>
        <use href="#rod" x="230" y="120" transform="rotate(30,200,150)"/>
        <use href="#rod" x="100" y="90" transform="rotate(40,150,100)"/>
        <use href="#rod" x="120" y="60" transform="rotate(60,130,130)"/>
        <use href="#rod" x="180" y="160" transform="rotate(50,150,180)"/>
        <use href="#rod" x="210" y="40" transform="rotate(130,170,140)"/>
        <use href="#rod" x="190" y="120" transform="rotate(100,170,180)"/>
        <use href="#rod" x="250" y="130" transform="rotate(10,220,220)"/>
        <use href="#rod" x="180" y="50" transform="rotate(90,170,100)"/>
        <use href="#rod" x="220" y="90" transform="rotate(40,200,200)"/>
    </g>
</svg>
