<svg width="275" height="275" xmlns="http://www.w3.org/2000/svg"><style>:root {--line-color: rgb(255, 255, 255);--background-color: rgb(127, 127, 127);}</style><rect width="100%" height="100%" fill="var(--background-color)"/><defs><path id="a" fill="var(--line-color)" d="M0 0h8v1H0z"/></defs><use href="#a" x="20" y="30" transform="rotate(15 25 31)"/><use href="#a" x="50" y="80" transform="rotate(-20 55 81)"/><use href="#a" x="90" y="150" transform="rotate(35 95 151)"/><use href="#a" x="120" y="60" transform="rotate(50 125 61)"/><use href="#a" x="30" y="110" transform="rotate(-10 35 111)"/><use href="#a" x="160" y="90" transform="rotate(25 165 91)"/><use href="#a" x="140" y="20" transform="rotate(-30 145 21)"/><use href="#a" x="70" y="40" transform="rotate(45 75 41)"/><use href="#a" x="180" y="130" transform="rotate(-15 185 131)"/><use href="#a" x="100" y="100" transform="rotate(5 105 101)"/><use href="#a" x="25" y="34" transform="rotate(-20 78 91)"/><use href="#a" x="71" y="1" transform="rotate(42 44 61)"/><use href="#a" x="189" y="90" transform="rotate(25 165 91)"/><use href="#a" x="73" y="45" transform="rotate(49 75 44)"/><use href="#a" x="132" y="34" transform="rotate(-15 85 13)"/><use href="#a" x="182" y="20" transform="rotate(54 105 101)"/><use href="#a" x="54" y="234" transform="rotate(15 25 31)"/><use href="#a" x="97" y="67" transform="rotate(-20 55 81)"/><use href="#a" x="38" y="69" transform="rotate(35 95 151)"/><use href="#a" x="84" y="39" transform="rotate(50 125 61)"/><use href="#a" x="145" y="239" transform="rotate(-10 35 111)"/><use href="#a" x="167" y="139" transform="rotate(25 165 91)"/><use href="#a" x="145" y="167" transform="rotate(-30 145 21)"/><use href="#a" x="236" y="240" transform="rotate(45 75 41)"/><use href="#a" x="160" y="230" transform="rotate(-15 185 131)"/><use href="#a" x="167" y="33" transform="rotate(15 25 31)"/><use href="#a" x="80" y="80" transform="rotate(-20 55 81)"/><use href="#a" x="18" y="150" transform="rotate(35 95 151)"/><use href="#a" x="70" y="190" transform="rotate(-10 35 111)"/><use href="#a" x="169" y="289" transform="rotate(25 165 91)"/><use href="#a" x="157" y="74" transform="rotate(45 75 41)"/><use href="#a" x="220" y="74" transform="rotate(45 75 41)"/><use href="#a" x="220" y="220" transform="rotate(45 75 41)"/><use href="#a" x="45" y="74" transform="rotate(45 75 41)"/><use href="#a" x="290" y="29" transform="rotate(45 75 41)"/><use href="#a" x="20" y="74" transform="rotate(45 75 41)"/><use href="#a" x="87" y="130" transform="rotate(45 75 41)"/><use href="#a" x="2" y="64" transform="rotate(45 75 41)"/><use href="#a" x="20" y="74" transform="rotate(5 75 41)"/><use href="#a" x="20" y="74" transform="rotate(45 75)"/><use href="#a" x="20" y="74" transform="rotate(230 33 31)"/><use href="#a" x="330" y="74" transform="rotate(45 75 41)"/><use href="#a" x="320" y="14" transform="rotate(45 75 41)"/><use href="#a" x="357" y="12" transform="rotate(45 75 41)"/><use href="#a" x="220" y="74" transform="rotate(45 75 41)"/><use href="#a" x="230" y="74" transform="rotate(5 75 41)"/><use href="#a" x="201" y="174" transform="rotate(5 75 41)"/><use href="#a" x="201" y="274" transform="rotate(5 75 41)"/><use href="#a" x="201" y="234" transform="rotate(5 75 41)"/><use href="#a" x="172" y="24" transform="rotate(5 75 41)"/><use href="#a" x="320" y="23" transform="rotate(43 53 41)"/><use href="#a" x="220" y="24" transform="rotate(45 75 41)"/><use href="#a" x="83" y="95" transform="rotate(-15 185 131)"/><use href="#a" x="63" y="91" transform="rotate(15 25 31)"/><use href="#a" x="175" y="165" transform="rotate(-20 55 81)"/><use href="#a" x="150" y="250" transform="rotate(-10 35 111)"/><use href="#a" x="250" y="250" transform="rotate(-10 35 111)"/><use href="#a" x="159" y="138" transform="rotate(25 165 91)"/><use href="#a" x="25" y="20" transform="rotate(-30 145 21)"/><use href="#a" x="75" y="130" transform="rotate(-15 185 131)"/><use href="#a" x="111" y="153" transform="rotate(5 105 101)"/><use href="#a" x="63" y="191" transform="rotate(15 25 31)"/><use href="#a" x="75" y="205" transform="rotate(1 55 81)"/><use href="#a" x="20" y="250" transform="rotate(-10 35 111)"/><use href="#a" x="201" y="138" transform="rotate(25 165 91)"/><use href="#a" x="68" y="257"/><use href="#a" x="259" y="2" transform="rotate(5 105 101)"/><use href="#a" x="259" y="62" transform="rotate(5 105 101)"/><use href="#a" x="259" y="72" transform="rotate(5 15 10)"/><use href="#a" x="259" y="2" transform="rotate(5 105 101)"/><use href="#a" x="29" y="42" transform="rotate(5 105 101)"/><use href="#a" x="259" y="22" transform="rotate(5 105 101)"/><use href="#a" x="259" y="259" transform="rotate(5 105 101)"/><use href="#a" x="20" y="30" transform="rotate(9 90 1240)"/><use href="#a" x="259" y="259" transform="rotate(90 259 259)"/><use href="#a" x="159" y="299" transform="rotate(90 259 259)"/><use href="#a" x="9" y="259" transform="rotate(90 259 259)"/><use href="#a" x="22" y="245" transform="rotate(90 259 260)"/><use href="#a" x="50" y="50"/><use href="#a" x="100" y="50" transform="rotate(30 100 50)"/><use href="#a" x="150" y="50" transform="rotate(60 150 50)"/><use href="#a" x="200" y="50" transform="rotate(90 200 50)"/><use href="#a" x="220" y="50" transform="rotate(120 250 50)"/><use href="#a" x="50" y="150" transform="rotate(45 50 150)"/><use href="#a" x="100" y="150" transform="rotate(90 100 150)"/><use href="#a" x="150" y="150" transform="rotate(135 150 150)"/><use href="#a" x="200" y="150" transform="rotate(180 200 150)"/><use href="#a" x="250" y="150" transform="rotate(225 250 150)"/><use href="#a" x="100" y="250" transform="rotate(270 100 250)"/><use href="#a" x="150" y="250" transform="rotate(315 150 250)"/><use href="#a" x="200" y="250" transform="rotate(360 200 250)"/><use href="#a" x="30" y="30" transform="rotate(15 30 30)"/><use href="#a" x="90" y="30" transform="rotate(45 90 30)"/><use href="#a" x="150" y="30" transform="rotate(75 150 30)"/><use href="#a" x="210" y="30" transform="rotate(105 210 30)"/><use href="#a" x="270" y="30" transform="rotate(135 270 30)"/><use href="#a" x="30" y="90" transform="rotate(30 30 90)"/><use href="#a" x="90" y="90" transform="rotate(60 90 90)"/><use href="#a" x="150" y="90" transform="rotate(90 150 90)"/><use href="#a" x="210" y="90" transform="rotate(120 210 90)"/><use href="#a" x="270" y="90" transform="rotate(150 220 90)"/><use href="#a" x="30" y="150" transform="rotate(45 30 150)"/><use href="#a" x="90" y="150" transform="rotate(90 90 120)"/><use href="#a" x="150" y="150" transform="rotate(135 150 150)"/><use href="#a" x="210" y="150" transform="rotate(180 210 155)"/><use href="#a" x="270" y="150" transform="rotate(225 270 150)"/><use href="#a" x="30" y="210" transform="rotate(60 30 210)"/><use href="#a" x="90" y="210" transform="rotate(120 90 210)"/><use href="#a" x="150" y="210" transform="rotate(180 150 210)"/><use href="#a" x="210" y="210" transform="rotate(240 210 210)"/><use href="#a" x="270" y="210" transform="rotate(300 270 210)"/><use href="#a" x="30" y="270" transform="rotate(75 30 270)"/><use href="#a" x="90" y="270" transform="rotate(150 90 270)"/><use href="#a" x="150" y="270" transform="rotate(225 150 270)"/><use href="#a" x="210" y="270" transform="rotate(300 210 270)"/><use href="#a" x="270" y="270" transform="rotate(360 270 270)"/><use href="#a" x="100" y="120" transform="rotate(2 250 50)"/><use href="#a" x="250" y="20" transform="rotate(120 250 50)"/><use href="#a" x="220" y="50" transform="rotate(120 250 50)"/><use href="#a" x="450" y="150" transform="rotate(120 250 50)"/><use href="#a" x="450" y="50" transform="rotate(120 250 50)"/><use href="#a" x="450" y="70" transform="rotate(120 250 50)"/><use href="#a" x="450" y="90" transform="rotate(120 250 50)"/><use href="#a" x="70" y="270" transform="rotate(360 270 270)"/><use href="#a" x="150" y="50" transform="rotate(90 90 120)"/><use href="#a" x="50" y="50" transform="rotate(90 90 120)"/><use href="#a" x="300" y="300" transform="rotate(45 300 300)"/><use href="#a" x="10" y="40" transform="rotate(20 10 40)"/><use href="#a" x="35" y="120" transform="rotate(10 35 120)"/><use href="#a" x="60" y="80" transform="rotate(-5 60 80)"/><use href="#a" x="120" y="160" transform="rotate(40 120 160)"/><use href="#a" x="180" y="50" transform="rotate(90 180 50)"/><use href="#a" x="200" y="100" transform="rotate(45 200 100)"/><use href="#a" x="250" y="200" transform="rotate(180 250 200)"/><use href="#a" x="30" y="220" transform="rotate(90 30 220)"/><use href="#a" x="80" y="250" transform="rotate(270 80 250)"/><use href="#a" x="100" y="170" transform="rotate(60 100 170)"/><use href="#a" x="150" y="90" transform="rotate(110 150 90)"/><use href="#a" x="180" y="300" transform="rotate(30 180 300)"/><use href="#a" x="90" y="200" transform="rotate(200 90 200)"/><use href="#a" x="270" y="50" transform="rotate(160 270 50)"/><use href="#a" x="50" y="250" transform="rotate(25 50 250)"/><use href="#a" x="220" y="170" transform="rotate(35 220 170)"/><use href="#a" x="70" y="50" transform="rotate(120 70 50)"/><use href="#a" x="250" y="180" transform="rotate(160 250 180)"/><use href="#a" x="150" y="30" transform="rotate(20 150 30)"/><use href="#a" x="30" y="150" transform="rotate(-45 30 150)"/><use href="#a" x="160" y="140" transform="rotate(50 160 140)"/><use href="#a" x="80" y="200" transform="rotate(70 80 200)"/><use href="#a" x="90" y="50" transform="rotate(90 90 50)"/><use href="#a" x="180" y="80" transform="rotate(60 180 80)"/><use href="#a" x="220" y="50" transform="rotate(80 220 50)"/><use href="#a" x="250" y="60" transform="rotate(150 250 60)"/><use href="#a" x="50" y="130" transform="rotate(10 50 130)"/><use href="#a" x="10" y="100" transform="rotate(80 10 100)"/><use href="#a" x="70" y="150" transform="rotate(120 70 150)"/><use href="#a" x="190" y="220" transform="rotate(220 190 220)"/><use href="#a" x="220" y="200" transform="rotate(200 220 200)"/><use href="#a" x="30" y="30" transform="rotate(180 30 30)"/><use href="#a" x="220" y="90" transform="rotate(30 250 100)"/><use href="#a" x="100" y="50" transform="rotate(250 100 50)"/><use href="#a" x="30" y="50" transform="rotate(60 30 50)"/><use href="#a" x="30" y="270" transform="rotate(110 30 270)"/><use href="#a" x="50" y="80" transform="rotate(85 50 80)"/><use href="#a" x="200" y="80" transform="rotate(120 200 80)"/><use href="#a" x="150" y="150" transform="rotate(80 150 150)"/><use href="#a" x="250" y="200" transform="rotate(45 250 200)"/><use href="#a" x="180" y="220" transform="rotate(135 180 220)"/><use href="#a" x="120" y="60" transform="rotate(170 120 60)"/><use href="#a" x="70" y="100" transform="rotate(90 70 100)"/><use href="#a" x="40" y="230" transform="rotate(45 40 230)"/><use href="#a" x="200" y="50" transform="rotate(60 200 50)"/><use href="#a" x="250" y="150" transform="rotate(150 250 150)"/><use href="#a" x="100" y="80" transform="rotate(10 100 80)"/><use href="#a" x="220" y="220" transform="rotate(160 220 220)"/><use href="#a" x="10" y="200" transform="rotate(30 10 200)"/><use href="#a" x="80" y="160" transform="rotate(40 80 160)"/><use href="#a" x="40" y="50" transform="rotate(90 40 50)"/><use href="#a" x="110" y="135" transform="rotate(180 120 120)"/><use href="#a" x="160" y="70" transform="rotate(110 160 70)"/><use href="#a" x="90" y="200" transform="rotate(220 90 200)"/><use href="#a" x="230" y="120" transform="rotate(270 230 120)"/><use href="#a" x="150" y="50" transform="rotate(250 150 50)"/><use href="#a" x="60" y="220" transform="rotate(200 60 220)"/><use href="#a" x="240" y="100" transform="rotate(30 240 100)"/><use href="#a" x="200" y="150" transform="rotate(130 200 150)"/><use href="#a" x="180" y="270" transform="rotate(250 180 270)"/><use href="#a" x="30" y="50" transform="rotate(130 30 50)"/><use href="#a" x="170" y="230" transform="rotate(180 170 230)"/><use href="#a" x="40" y="180" transform="rotate(210 40 180)"/><use href="#a" x="250" y="80" transform="rotate(40 250 80)"/><use href="#a" x="100" y="200" transform="rotate(320 100 200)"/><use href="#a" x="70" y="140" transform="rotate(15 70 140)"/><use href="#a" x="180" y="180" transform="rotate(250 180 180)"/><use href="#a" x="150" y="70" transform="rotate(110 150 70)"/><use href="#a" x="120" y="180" transform="rotate(200 120 180)"/><use href="#a" x="80" y="40" transform="rotate(90 80 40)"/><use href="#a" x="200" y="100" transform="rotate(270 200 100)"/><use href="#a" x="60" y="50" transform="rotate(170 60 50)"/><use href="#a" x="250" y="120" transform="rotate(70 250 120)"/><use href="#a" x="150" y="80" transform="rotate(10 150 80)"/><use href="#a" x="100" y="250" transform="rotate(30 100 250)"/><use href="#a" x="50" y="180" transform="rotate(320 50 180)"/><use href="#a" x="120" y="70" transform="rotate(70 120 70)"/><use href="#a" x="180" y="120" transform="rotate(150 180 120)"/><use href="#a" x="50" y="220" transform="rotate(10 50 220)"/><use href="#a" x="30" y="150" transform="rotate(45 30 150)"/><use href="#a" x="160" y="200" transform="rotate(120 160 200)"/><use href="#a" x="130" y="90" transform="rotate(250 130 90)"/><use href="#a" x="300" y="50" transform="rotate(15 25 31)"/><use href="#a" x="250" y="80" transform="rotate(-10 55 81)"/><use href="#a" x="190" y="150" transform="rotate(25 95 151)"/><use href="#a" x="120" y="160" transform="rotate(35 125 61)"/><use href="#a" x="100" y="220" transform="rotate(45 35 111)"/><use href="#a" x="175" y="180" transform="rotate(-5 165 91)"/><use href="#a" x="50" y="20" transform="rotate(-25 145 21)"/><use href="#a" x="30" y="40" transform="rotate(60 75 41)"/><use href="#a" x="180" y="140" transform="rotate(-15 185 131)"/><use href="#a" x="140" y="120" transform="rotate(60 105 101)"/><use href="#a" x="80" y="60" transform="rotate(45 75 41)"/><use href="#a" x="90" y="110" transform="rotate(-30 105 101)"/><use href="#a" x="55" y="60" transform="rotate(45 75 41)"/><use href="#a" x="120" y="210" transform="rotate(25 165 91)"/><use href="#a" x="220" y="100" transform="rotate(-10 35 111)"/><use href="#a" x="80" y="150" transform="rotate(15 85 181)"/><use href="#a" x="120" y="120" transform="rotate(40 65 41)"/><use href="#a" x="150" y="250" transform="rotate(35 90 71)"/><use href="#a" x="70" y="30" transform="rotate(20 90 120)"/><use href="#a" x="240" y="120" transform="rotate(60 220 50)"/><use href="#a" x="100" y="190" transform="rotate(80 100 150)"/><use href="#a" x="170" y="180" transform="rotate(100 170 180)"/><use href="#a" x="210" y="150" transform="rotate(75 230 70)"/><use href="#a" x="150" y="90" transform="rotate(45 50 150)"/><use href="#a" x="180" y="250" transform="rotate(60 100 90)"/><use href="#a" x="250" y="150" transform="rotate(70 75 41)"/><use href="#a" x="210" y="80" transform="rotate(100 145 160)"/><use href="#a" x="80" y="220" transform="rotate(110 80 200)"/><use href="#a" x="160" y="40" transform="rotate(150 180 60)"/><use href="#a" x="100" y="50" transform="rotate(135 120 70)"/><use href="#a" x="90" y="180" transform="rotate(110 130 140)"/><use href="#a" x="220" y="210" transform="rotate(30 185 200)"/><use href="#a" x="40" y="130" transform="rotate(160 130 120)"/><use href="#a" x="170" y="60" transform="rotate(60 150 30)"/><use href="#a" x="230" y="100" transform="rotate(45 160 90)"/><use href="#a" x="120" y="270" transform="rotate(90 230 250)"/><use href="#a" x="200" y="80" transform="rotate(10 50 60)"/><use href="#a" x="270" y="120" transform="rotate(90 240 150)"/><use href="#a" x="80" y="140" transform="rotate(30 110 80)"/><use href="#a" x="220" y="30" transform="rotate(60 130 170)"/><use href="#a" x="160" y="110" transform="rotate(50 150 120)"/><use href="#a" x="200" y="200" transform="rotate(100 250 200)"/><use href="#a" x="180" y="190" transform="rotate(150 200 140)"/><use href="#a" x="110" y="220" transform="rotate(40 190 200)"/><use href="#a" x="150" y="180" transform="rotate(10 170 50)"/><use href="#a" x="160" y="250" transform="rotate(50 180 100)"/><use href="#a" x="210" y="130" transform="rotate(20 240 80)"/><use href="#a" x="190" y="160" transform="rotate(15 200 60)"/><use href="#a" x="100" y="110" transform="rotate(50 60 50)"/><use href="#a" x="240" y="200" transform="rotate(30 210 230)"/><use href="#a" x="180" y="30" transform="rotate(75 160 110)"/><use href="#a" x="100" y="50" transform="rotate(140 50 60)"/><use href="#a" x="180" y="80" transform="rotate(160 140 80)"/><use href="#a" x="50" y="250" transform="rotate(10 120 100)"/><use href="#a" x="110" y="120" transform="rotate(70 100 150)"/><use href="#a" x="150" y="150" transform="rotate(80 200 170)"/><use href="#a" x="250" y="230" transform="rotate(45 180 190)"/><use href="#a" x="80" y="200" transform="rotate(120 70 130)"/><use href="#a" x="160" y="250" transform="rotate(130 150 130)"/><use href="#a" x="120" y="200" transform="rotate(40 150 90)"/><use href="#a" x="60" y="250" transform="rotate(120 120 170)"/><use href="#a" x="140" y="120" transform="rotate(200 160 120)"/><use href="#a" x="100" y="80" transform="rotate(45 75 65)"/><use href="#a" x="100" y="80" transform="rotate(65 75 65)"/><use href="#a" x="200" y="180" transform="rotate(45 75 65)"/><use href="#a" x="248" y="83" transform="rotate(45 75 65)"/><use href="#a" x="230" y="100" transform="rotate(30 200 150)"/><use href="#a" x="180" y="50" transform="rotate(20 160 180)"/><use href="#a" x="120" y="150" transform="rotate(40 130 130)"/><use href="#a" x="250" y="170" transform="rotate(70 220 180)"/><use href="#a" x="170" y="120" transform="rotate(110 150 190)"/><use href="#a" x="190" y="90" transform="rotate(90 140 180)"/><use href="#a" x="230" y="50" transform="rotate(60 210 100)"/><use href="#a" x="120" y="210" transform="rotate(35 100 140)"/><use href="#a" x="150" y="80" transform="rotate(60 130 120)"/><use href="#a" x="240" y="90" transform="rotate(40 210 160)"/><use href="#a" x="110" y="60" transform="rotate(120 140 160)"/><use href="#a" x="100" y="120" transform="rotate(80 130 100)"/><use href="#a" x="250" y="210" transform="rotate(90 230 200)"/><use href="#a" x="170" y="40" transform="rotate(150 140 120)"/><use href="#a" x="180" y="200" transform="rotate(75 150 140)"/><use href="#a" x="200" y="70" transform="rotate(120 170 160)"/><use href="#a" x="150" y="60" transform="rotate(45 180 150)"/><use href="#a" x="190" y="100" transform="rotate(10 140 100)"/><use href="#a" x="210" y="60" transform="rotate(120 180 180)"/><use href="#a" x="170" y="170" transform="rotate(50 130 120)"/><use href="#a" x="120" y="180" transform="rotate(30 110 140)"/><use href="#a" x="200" y="160" transform="rotate(40 190 180)"/><use href="#a" x="150" y="170" transform="rotate(80 180 150)"/><use href="#a" x="200" y="50" transform="rotate(50 160 160)"/><use href="#a" x="160" y="90" transform="rotate(20 140 120)"/><use href="#a" x="230" y="120" transform="rotate(30 200 150)"/><use href="#a" x="100" y="90" transform="rotate(40 150 100)"/><use href="#a" x="120" y="60" transform="rotate(60 130 130)"/><use href="#a" x="180" y="160" transform="rotate(50 150 180)"/><use href="#a" x="210" y="40" transform="rotate(130 170 140)"/><use href="#a" x="190" y="120" transform="rotate(100 170 180)"/><use href="#a" x="250" y="130" transform="rotate(10 220 220)"/><use href="#a" x="180" y="50" transform="rotate(90 170 100)"/><use href="#a" x="220" y="90" transform="rotate(40 200 200)"/><use href="#a" x="150" y="300" transform="rotate(60 150 300)"/><use href="#a" x="200" y="150" transform="rotate(180 200 150)"/>  <use href="#a" x="250" y="180" transform="rotate(90 250 180)"/><use href="#a" x="100" y="200" transform="rotate(45 100 200)"/><use href="#a" x="50" y="130" transform="rotate(20 50 130)"/><use href="#a" x="200" y="250" transform="rotate(110 200 250)"/><use href="#a" x="150" y="170" transform="rotate(270 150 170)"/><use href="#a" x="250" y="120" transform="rotate(150 250 120)"/><use href="#a" x="300" y="200" transform="rotate(50 300 200)"/><use href="#a" x="90" y="90" transform="rotate(30 90 90)"/><use href="#a" x="70" y="250" transform="rotate(160 70 250)"/><use href="#a" x="120" y="150" transform="rotate(230 120 150)"/><use href="#a" x="180" y="180" transform="rotate(90 180 180)"/><use href="#a" x="220" y="130" transform="rotate(60 220 130)"/><use href="#a" x="250" y="50" transform="rotate(40 250 50)"/><use href="#a" x="170" y="90" transform="rotate(20 170 90)"/><use href="#a" x="55" y="15" transform="rotate(10 55 15)"/><use href="#a" x="110" y="120" transform="rotate(60 110 120)"/><use href="#a" x="175" y="90" transform="rotate(45 175 90)"/><use href="#a" x="35" y="175" transform="rotate(25 35 175)"/><use href="#a" x="185" y="240" transform="rotate(30 185 240)"/><use href="#a" x="220" y="30" transform="rotate(70 220 30)"/><use href="#a" x="125" y="220" transform="rotate(50 125 220)"/><use href="#a" x="80" y="30" transform="rotate(100 80 30)"/><use href="#a" x="90" y="170" transform="rotate(45 90 170)"/><use href="#a" x="65" y="85" transform="rotate(120 65 85)"/><use href="#a" x="140" y="160" transform="rotate(20 140 160)"/><use href="#a" x="195" y="130" transform="rotate(10 195 130)"/><use href="#a" x="230" y="200" transform="rotate(90 230 200)"/><use href="#a" x="120" y="250" transform="rotate(50 120 250)"/><use href="#a" x="175" y="50" transform="rotate(45 175 50)"/><use href="#a" x="250" y="120" transform="rotate(15 250 120)"/><use href="#a" x="90" y="80" transform="rotate(35 90 80)"/><use href="#a" x="30" y="170" transform="rotate(70 30 170)"/><use href="#a" x="65" y="250" transform="rotate(125 65 250)"/><use href="#a" x="110" y="220" transform="rotate(20 110 220)"/><use href="#a" x="180" y="100" transform="rotate(60 180 100)"/><use href="#a" x="250" y="70" transform="rotate(10 250 70)"/><use href="#a" x="130" y="180" transform="rotate(40 130 180)"/><use href="#a" x="190" y="40" transform="rotate(75 190 40)"/><use href="#a" x="150" y="90" transform="rotate(85 150 90)"/><use href="#a" x="70" y="40" transform="rotate(30 70 40)"/><use href="#a" x="160" y="130" transform="rotate(60 160 130)"/><use href="#a" x="130" y="250" transform="rotate(100 130 250)"/><use href="#a" x="220" y="180" transform="rotate(150 220 180)"/><use href="#a" x="75" y="240" transform="rotate(15 75 240)"/><use href="#a" x="30" y="120" transform="rotate(50 30 120)"/><use href="#a" x="90" y="50" transform="rotate(80 90 50)"/><use href="#a" x="180" y="180" transform="rotate(130 180 180)"/><use href="#a" x="150" y="100" transform="rotate(25 150 100)"/><use href="#a" x="60" y="200" transform="rotate(90 60 200)"/><use href="#a" x="230" y="140" transform="rotate(110 230 140)"/><use href="#a" x="210" y="50" transform="rotate(60 210 50)"/><use href="#a" x="160" y="60" transform="rotate(50 160 60)"/><use href="#a" x="190" y="250" transform="rotate(30 190 250)"/><use href="#a" x="200" y="30" transform="rotate(120 200 30)"/><use href="#a" x="80" y="200" transform="rotate(15 80 200)"/><use href="#a" x="50" y="240" transform="rotate(55 50 240)"/><use href="#a" x="70" y="30" transform="rotate(110 70 30)"/><use href="#a" x="100" y="120" transform="rotate(60 100 120)"/><use href="#a" x="150" y="170" transform="rotate(10 150 170)"/><use href="#a" x="200" y="130" transform="rotate(20 200 130)"/><use href="#a" x="250" y="100" transform="rotate(120 250 100)"/><use href="#a" x="90" y="50" transform="rotate(70 90 50)"/><use href="#a" x="170" y="50" transform="rotate(15 170 50)"/><use href="#a" x="120" y="200" transform="rotate(50 120 200)"/><use href="#a" x="250" y="40" transform="rotate(80 250 40)"/><use href="#a" x="180" y="250" transform="rotate(40 180 250)"/><use href="#a" x="40" y="100" transform="rotate(30 40 100)"/><use href="#a" x="140" y="70" transform="rotate(100 140 70)"/><use href="#a" x="190" y="200" transform="rotate(60 190 200)"/><use href="#a" x="210" y="100" transform="rotate(10 210 100)"/><use href="#a" x="70" y="150" transform="rotate(90 70 150)"/><use href="#a" x="250" y="130" transform="rotate(60 250 130)"/><use href="#a" x="120" y="160" transform="rotate(20 120 160)"/><use href="#a" x="160" y="70" transform="rotate(15 160 70)"/><use href="#a" x="50" y="90" transform="rotate(80 50 90)"/><use href="#a" x="90" y="160" transform="rotate(30 90 160)"/><use href="#a" x="30" y="250" transform="rotate(60 30 250)"/><use href="#a" x="120" y="80" transform="rotate(25 120 80)"/><use href="#a" x="200" y="180" transform="rotate(15 200 180)"/><use href="#a" x="90" y="140" transform="rotate(60 90 140)"/><use href="#a" x="30" y="50" transform="rotate(70 30 50)"/><use href="#a" x="180" y="140" transform="rotate(100 180 140)"/><use href="#a" x="220" y="60" transform="rotate(10 220 60)"/><use href="#a" x="150" y="120" transform="rotate(40 150 120)"/><use href="#a" x="180" y="70" transform="rotate(120 180 70)"/><use href="#a" x="250" y="50" transform="rotate(50 250 50)"/><use href="#a" x="10" y="10" transform="rotate(15 10 10)"/><use href="#a" x="50" y="10" transform="rotate(25 50 10)"/><use href="#a" x="100" y="10" transform="rotate(35 100 10)"/><use href="#a" x="150" y="10" transform="rotate(45 150 10)"/><use href="#a" x="200" y="10" transform="rotate(55 200 10)"/><use href="#a" x="200" y="15" transform="rotate(55 200 10)"/><use href="#a" x="200" transform="rotate(55 200 10)"/><use href="#a" x="200" y="100" transform="rotate(55 200 10)"/><use href="#a" x="250" y="10" transform="rotate(65 250 10)"/><use href="#a" x="10" y="30" transform="rotate(75 10 30)"/><use href="#a" x="50" y="30" transform="rotate(85 50 30)"/><use href="#a" x="100" y="30" transform="rotate(95 100 30)"/><use href="#a" x="150" y="30" transform="rotate(105 150 30)"/><use href="#a" x="200" y="30" transform="rotate(115 200 30)"/><use href="#a" x="250" y="30" transform="rotate(125 250 30)"/><use href="#a" x="10" y="50" transform="rotate(135 10 50)"/><use href="#a" x="50" y="50" transform="rotate(145 50 50)"/><use href="#a" x="100" y="50" transform="rotate(155 100 50)"/><use href="#a" x="150" y="50" transform="rotate(165 150 50)"/><use href="#a" x="200" y="50" transform="rotate(175 200 50)"/><use href="#a" x="250" y="50" transform="rotate(185 250 50)"/><use href="#a" x="10" y="70" transform="rotate(195 10 70)"/><use href="#a" x="50" y="70" transform="rotate(205 50 70)"/><use href="#a" x="100" y="70" transform="rotate(215 100 70)"/><use href="#a" x="150" y="70" transform="rotate(225 150 70)"/><use href="#a" x="200" y="70" transform="rotate(235 200 70)"/><use href="#a" x="250" y="70" transform="rotate(245 250 70)"/><use href="#a" x="10" y="90" transform="rotate(255 10 90)"/><use href="#a" x="50" y="90" transform="rotate(265 50 90)"/><use href="#a" x="100" y="90" transform="rotate(275 100 90)"/><use href="#a" x="150" y="90" transform="rotate(285 150 90)"/><use href="#a" x="200" y="90" transform="rotate(295 200 90)"/><use href="#a" x="250" y="90" transform="rotate(305 250 90)"/><use href="#a" x="10" y="110" transform="rotate(315 10 110)"/><use href="#a" x="50" y="110" transform="rotate(325 50 110)"/><use href="#a" x="100" y="110" transform="rotate(335 100 110)"/><use href="#a" x="150" y="10" transform="rotate(345 150 110)"/><use href="#a" x="10" y="110" transform="rotate(345 150 110)"/><use href="#a" x="130" y="110" transform="rotate(345 150 110)"/><use href="#a" x="130" y="115" transform="rotate(345 150 110)"/><use href="#a" x="200" y="110" transform="rotate(355 200 110)"/><use href="#a" x="250" y="110" transform="rotate(5 250 110)"/><use href="#a" x="10" y="130" transform="rotate(15 10 130)"/><use href="#a" x="50" y="130" transform="rotate(25 50 130)"/><use href="#a" x="100" y="130" transform="rotate(35 100 130)"/><use href="#a" x="150" y="130" transform="rotate(45 150 130)"/><use href="#a" x="200" y="130" transform="rotate(55 200 130)"/><use href="#a" x="250" y="130" transform="rotate(65 250 130)"/><use href="#a" x="10" y="150" transform="rotate(75 10 150)"/><use href="#a" x="50" y="150" transform="rotate(85 50 150)"/><use href="#a" x="100" y="150" transform="rotate(95 100 150)"/><use href="#a" x="150" y="150" transform="rotate(105 150 150)"/><use href="#a" x="200" y="150" transform="rotate(115 200 150)"/><use href="#a" x="250" y="150" transform="rotate(125 250 150)"/><use href="#a" x="10" y="170" transform="rotate(135 10 170)"/><use href="#a" x="50" y="170" transform="rotate(145 50 170)"/><use href="#a" x="100" y="170" transform="rotate(155 100 170)"/><use href="#a" x="150" y="170" transform="rotate(165 150 170)"/><use href="#a" x="200" y="170" transform="rotate(175 200 170)"/><use href="#a" x="250" y="170" transform="rotate(185 250 170)"/><use href="#a" x="10" y="190" transform="rotate(195 10 190)"/><use href="#a" x="50" y="190" transform="rotate(205 50 190)"/><use href="#a" x="100" y="190" transform="rotate(215 100 190)"/><use href="#a" x="150" y="190" transform="rotate(225 150 190)"/><use href="#a" x="200" y="190" transform="rotate(235 200 190)"/><use href="#a" x="250" y="190" transform="rotate(245 250 190)"/><use href="#a" x="10" y="210" transform="rotate(255 10 210)"/><use href="#a" x="50" y="210" transform="rotate(265 50 210)"/><use href="#a" x="100" y="210" transform="rotate(275 100 210)"/><use href="#a" x="150" y="210" transform="rotate(285 150 210)"/><use href="#a" x="200" y="210" transform="rotate(295 200 210)"/><use href="#a" x="250" y="210" transform="rotate(305 250 210)"/><use href="#a" x="10" y="230" transform="rotate(315 10 230)"/><use href="#a" x="50" y="230" transform="rotate(325 50 230)"/><use href="#a" x="100" y="230" transform="rotate(335 100 230)"/><use href="#a" x="150" y="230" transform="rotate(345 150 230)"/><use href="#a" x="200" y="230" transform="rotate(355 200 230)"/><use href="#a" x="250" y="230" transform="rotate(5 250 230)"/><use href="#a" x="250" y="250" transform="rotate(5 250 230)"/><use href="#a" x="10" y="250" transform="rotate(15 10 250)"/><use href="#a" x="50" y="250" transform="rotate(25 50 250)"/><use href="#a" x="100" y="250" transform="rotate(35 100 250)"/><use href="#a" x="150" y="250" transform="rotate(45 150 250)"/><use href="#a" x="200" y="250" transform="rotate(55 200 250)"/><use href="#a" x="200" y="250" transform="rotate(55 250 150)"/><use href="#a" x="250" y="250" transform="rotate(65 250 250)"/><use href="#a" x="10" y="10" transform="rotate(15 10 10)"/><use href="#a" x="50" y="10" transform="rotate(25 50 10)"/><use href="#a" x="90" y="10" transform="rotate(35 90 10)"/><use href="#a" x="130" y="10" transform="rotate(45 130 10)"/><use href="#a" x="170" y="10" transform="rotate(55 170 10)"/><use href="#a" x="210" y="10" transform="rotate(65 210 10)"/><use href="#a" x="250" y="30" transform="rotate(75 250 10)"/><use href="#a" x="250" y="70" transform="rotate(75 250 10)"/><use href="#a" x="10" y="30" transform="rotate(265 10 30)"/><use href="#a" x="50" y="30" transform="rotate(275 50 30)"/><use href="#a" x="90" y="30" transform="rotate(285 90 30)"/><use href="#a" x="130" y="30" transform="rotate(295 130 30)"/><use href="#a" x="170" y="30" transform="rotate(305 170 30)"/><use href="#a" x="210" y="30" transform="rotate(315 210 30)"/><use href="#a" x="250" y="30" transform="rotate(325 250 30)"/><use href="#a" x="10" y="50" transform="rotate(155 10 50)"/><use href="#a" x="50" y="90" transform="rotate(165 50 50)"/><use href="#a" x="90" y="50" transform="rotate(175 90 50)"/><use href="#a" x="130" y="50" transform="rotate(185 130 50)"/><use href="#a" x="170" y="50" transform="rotate(195 170 50)"/><use href="#a" x="210" y="50" transform="rotate(205 210 50)"/><use href="#a" x="250" y="50" transform="rotate(215 250 50)"/><use href="#a" x="290" y="50" transform="rotate(225 290 50)"/><use href="#a" x="290" y="-30" transform="rotate(225 290 50)"/><use href="#a" x="220" y="-30" transform="rotate(225 290 50)"/><use href="#a" x="210" y="-30" transform="rotate(255 290 50)"/><use href="#a" x="270" y="50" transform="rotate(255 290 50)"/><use href="#a" x="350" y="50" transform="rotate(255 290 50)"/><use href="#a" x="20" y="30" transform="rotate(15 25 31)"/><use href="#a" x="50" y="80" transform="rotate(-20 55 81)"/><use href="#a" x="90" y="150" transform="rotate(35 95 151)"/><use href="#a" x="120" y="60" transform="rotate(50 125 61)"/><use href="#a" x="30" y="110" transform="rotate(-10 35 111)"/><use href="#a" x="160" y="90" transform="rotate(25 165 91)"/><use href="#a" x="140" y="20" transform="rotate(-30 145 21)"/><use href="#a" x="70" y="40" transform="rotate(45 75 41)"/><use href="#a" x="180" y="130" transform="rotate(-15 185 131)"/><use href="#a" x="100" y="100" transform="rotate(5 105 101)"/><use href="#a" x="200" y="200" transform="rotate(-5 205 201)"/><use href="#a" x="250" y="50" transform="rotate(10 255 51)"/><use href="#a" x="220" y="120" transform="rotate(-25 225 121)"/><use href="#a" x="270" y="80" transform="rotate(30 275 81)"/><use href="#a" x="30" y="250" transform="rotate(40 35 251)"/><use href="#a" x="80" y="220" transform="rotate(-35 85 221)"/><use href="#a" x="150" y="250" transform="rotate(20 155 251)"/><use href="#a" x="200" y="260" transform="rotate(-10 205 261)"/><use href="#a" x="220" y="260" transform="rotate(-10 205 261)"/><use href="#a" x="230" y="260" transform="rotate(40 220 251)"/><use href="#a" x="230" y="270" transform="rotate(40 220 251)"/><use href="#a" x="240" y="180" transform="rotate(50 245 181)"/><use href="#a" x="120" y="270" transform="rotate(25 95 271)"/><use href="#a" x="180" y="30" transform="rotate(-15 185 31)"/><use href="#a" x="130" y="170" transform="rotate(5 135 171)"/><use href="#a" x="130" y="140" transform="rotate(5 135 171)"/><use href="#a" x="50" y="180" transform="rotate(15 55 181)"/><use href="#a" x="280" y="220" transform="rotate(-20 285 221)"/><use href="#a" x="100" y="240" transform="rotate(-5 105 51)"/><use href="#a" x="100" y="270" transform="rotate(-5 105 51)"/><use href="#a" x="80" y="270" transform="rotate(-45 105 51)"/></svg>